<svg width="1em" height="1em" viewBox="0 0 16 16" fill="currentColor" xmlns="http://www.w3.org/2000/svg">
<path d="M15.0001 0.5H1.00007C0.0345528 0.5 0.0344464 2.5 0.999964 2.5H15C15.9655 2.5 15.9656 0.5 15.0001 0.5Z" />
<path d="M15 15.5H1.00001C0.0344977 15.5 0.0345905 13.5 1.00011 13.5H15.0001C15.9656 13.5 15.9655 15.5 15 15.5Z" />
<path d="M9.5 7H1.00003C0.0345127 7 0.0345127 9 1.00003 9H9.5C10.4655 9 10.4655 7 9.5 7Z" />
<path d="M12.5 9C11.5345 9 11.5345 7 12.5 7H15C15.9655 7 15.9655 9 15 9H12.5Z" />
</svg>
